<?xml version="1.0" standalone="no"?>
<?xml-stylesheet href="light.css" type="text/css"?>
<!DOCTYPE svg PUBLIC "-//W3C//DTD SVG 1.1//EN" "http://www.w3.org/Graphics/SVG/1.1/DTD/svg11.dtd">
<svg xmlns="http://www.w3.org/2000/svg" version="1.1" viewBox="0 0 1000 1000"><g transform="translate(467.9572684848516,258.97506286244095) scale(0.03442469066295167)"><path class="tree-link" d="M-883.4999999999999,120C-883.4999999999999,60 85.5,71.5 85.5,71.5" style="stroke-opacity: 1;"></path><path class="tree-link" d="M-693.4999999999999,120C-693.4999999999999,60 85.5,71.5 85.5,71.5" style="stroke-opacity: 1;"></path><path class="tree-link" d="M-503.4999999999999,120C-503.4999999999999,60 85.5,71.5 85.5,71.5" style="stroke-opacity: 1;"></path><path class="tree-link" d="M-503.4999999999999,240C-503.4999999999999,180 -313.49999999999994,191.5 -313.49999999999994,191.5" style="stroke-opacity: 1;"></path><path class="tree-link" d="M-123.49999999999994,240C-123.49999999999994,180 -313.49999999999994,191.5 -313.49999999999994,191.5" style="stroke-opacity: 1;"></path><path class="tree-link" d="M-693.4999999999999,300C-693.4999999999999,240 -693.4999999999999,251.5 -693.4999999999999,251.5" style="stroke-opacity: 1;"></path><path class="tree-link" d="M-313.49999999999994,300C-313.49999999999994,240 -313.49999999999994,251.5 -313.49999999999994,251.5" style="stroke-opacity: 1;"></path><path class="tree-link" d="M-28.49999999999993,360C-28.49999999999993,300 66.50000000000007,311.5 66.50000000000007,311.5" style="stroke-opacity: 1;"></path><path class="tree-link" d="M370.5,120C370.5,60 85.5,71.5 85.5,71.5" style="stroke-opacity: 1;"></path><path class="tree-link" d="M864.4999999999999,180C864.4999999999999,120 1054.5,131.5 1054.5,131.5" style="stroke-opacity: 1;"></path><path class="tree-link" d="M161.50000000000006,360C161.50000000000006,300 66.50000000000007,311.5 66.50000000000007,311.5" style="stroke-opacity: 1;"></path><path class="tree-link" d="M332.5,480C332.5,420 427.49999999999994,431.5 427.49999999999994,431.5" style="stroke-opacity: 1;"></path><path class="tree-link" d="M142.49999999999997,540C142.49999999999997,480 522.5,491.5 522.5,491.5" style="stroke-opacity: 1;"></path><path class="tree-link" d="M522.5,540C522.5,480 522.5,491.5 522.5,491.5" style="stroke-opacity: 1;"></path><path class="tree-link" d="M332.5,660C332.5,600 332.5,611.5 332.5,611.5" style="stroke-opacity: 1;"></path><path class="tree-link" d="M522.5,720C522.5,660 712.5,671.5 712.5,671.5" style="stroke-opacity: 1;"></path><path class="tree-link" d="M85.5,60C85.5,0 85.5,11.5 85.5,11.5" style="stroke-opacity: 1;"></path><path class="tree-link" d="M-313.49999999999994,120C-313.49999999999994,60 85.5,71.5 85.5,71.5" style="stroke-opacity: 1;"></path><path class="tree-link" d="M1054.5,120C1054.5,60 85.5,71.5 85.5,71.5" style="stroke-opacity: 1;"></path><path class="tree-link" d="M-313.49999999999994,180C-313.49999999999994,120 -313.49999999999994,131.5 -313.49999999999994,131.5" style="stroke-opacity: 1;"></path><path class="tree-link" d="M1054.5,180C1054.5,120 1054.5,131.5 1054.5,131.5" style="stroke-opacity: 1;"></path><path class="tree-link" d="M1244.5,180C1244.5,120 1054.5,131.5 1054.5,131.5" style="stroke-opacity: 1;"></path><path class="tree-link" d="M-693.4999999999999,240C-693.4999999999999,180 -313.49999999999994,191.5 -313.49999999999994,191.5" style="stroke-opacity: 1;"></path><path class="tree-link" d="M-313.49999999999994,240C-313.49999999999994,180 -313.49999999999994,191.5 -313.49999999999994,191.5" style="stroke-opacity: 1;"></path><path class="tree-link" d="M66.50000000000007,240C66.50000000000007,180 -313.49999999999994,191.5 -313.49999999999994,191.5" style="stroke-opacity: 1;"></path><path class="tree-link" d="M1054.5,240C1054.5,180 1054.5,191.5 1054.5,191.5" style="stroke-opacity: 1;"></path><path class="tree-link" d="M66.50000000000007,300C66.50000000000007,240 66.50000000000007,251.5 66.50000000000007,251.5" style="stroke-opacity: 1;"></path><path class="tree-link" d="M1054.5,300C1054.5,240 1054.5,251.5 1054.5,251.5" style="stroke-opacity: 1;"></path><path class="tree-link" d="M427.49999999999994,360C427.49999999999994,300 1054.5,311.5 1054.5,311.5" style="stroke-opacity: 1;"></path><path class="tree-link" d="M1681.4999999999998,360C1681.4999999999998,300 1054.5,311.5 1054.5,311.5" style="stroke-opacity: 1;"></path><path class="tree-link" d="M427.49999999999994,420C427.49999999999994,360 427.49999999999994,371.5 427.49999999999994,371.5" style="stroke-opacity: 1;"></path><path class="tree-link" d="M1681.4999999999998,420C1681.4999999999998,360 1681.4999999999998,371.5 1681.4999999999998,371.5" style="stroke-opacity: 1;"></path><path class="tree-link" d="M522.5,480C522.5,420 427.49999999999994,431.5 427.49999999999994,431.5" style="stroke-opacity: 1;"></path><path class="tree-link" d="M1586.5,480C1586.5,420 1681.4999999999998,431.5 1681.4999999999998,431.5" style="stroke-opacity: 1;"></path><path class="tree-link" d="M1776.4999999999998,480C1776.4999999999998,420 1681.4999999999998,431.5 1681.4999999999998,431.5" style="stroke-opacity: 1;"></path><path class="tree-link" d="M332.5,540C332.5,480 522.5,491.5 522.5,491.5" style="stroke-opacity: 1;"></path><path class="tree-link" d="M712.5,540C712.5,480 522.5,491.5 522.5,491.5" style="stroke-opacity: 1;"></path><path class="tree-link" d="M902.5,540C902.5,480 522.5,491.5 522.5,491.5" style="stroke-opacity: 1;"></path><path class="tree-link" d="M1586.5,540C1586.5,480 1776.4999999999998,491.5 1776.4999999999998,491.5" style="stroke-opacity: 1;"></path><path class="tree-link" d="M1776.4999999999998,540C1776.4999999999998,480 1776.4999999999998,491.5 1776.4999999999998,491.5" style="stroke-opacity: 1;"></path><path class="tree-link" d="M1966.4999999999998,540C1966.4999999999998,480 1776.4999999999998,491.5 1776.4999999999998,491.5" style="stroke-opacity: 1;"></path><path class="tree-link" d="M332.5,600C332.5,540 332.5,551.5 332.5,551.5" style="stroke-opacity: 1;"></path><path class="tree-link" d="M712.5,600C712.5,540 712.5,551.5 712.5,551.5" style="stroke-opacity: 1;"></path><path class="tree-link" d="M1776.4999999999998,600C1776.4999999999998,540 1776.4999999999998,551.5 1776.4999999999998,551.5" style="stroke-opacity: 1;"></path><path class="tree-link" d="M712.5,660C712.5,600 712.5,611.5 712.5,611.5" style="stroke-opacity: 1;"></path><path class="tree-link" d="M1776.4999999999998,660C1776.4999999999998,600 1776.4999999999998,611.5 1776.4999999999998,611.5" style="stroke-opacity: 1;"></path><path class="tree-link" d="M712.5,720C712.5,660 712.5,671.5 712.5,671.5" style="stroke-opacity: 1;"></path><path class="tree-link" d="M902.5,720C902.5,660 712.5,671.5 712.5,671.5" style="stroke-opacity: 1;"></path><path class="tree-link" d="M1263.4999999999998,720C1263.4999999999998,660 1776.4999999999998,671.5 1776.4999999999998,671.5" style="stroke-opacity: 1;"></path><path class="tree-link" d="M2289.5,720C2289.5,660 1776.4999999999998,671.5 1776.4999999999998,671.5" style="stroke-opacity: 1;"></path><path class="tree-link" d="M522.5,780C522.5,720 712.5,731.5 712.5,731.5" style="stroke-opacity: 1;"></path><path class="tree-link" d="M712.5,780C712.5,720 712.5,731.5 712.5,731.5" style="stroke-opacity: 1;"></path><path class="tree-link" d="M902.5,780C902.5,720 712.5,731.5 712.5,731.5" style="stroke-opacity: 1;"></path><path class="tree-link" d="M1263.4999999999998,780C1263.4999999999998,720 1263.4999999999998,731.5 1263.4999999999998,731.5" style="stroke-opacity: 1;"></path><path class="tree-link" d="M2289.5,780C2289.5,720 2289.5,731.5 2289.5,731.5" style="stroke-opacity: 1;"></path><path class="tree-link" d="M522.5,840C522.5,780 522.5,791.5 522.5,791.5" style="stroke-opacity: 1;"></path><path class="tree-link" d="M902.5,840C902.5,780 902.5,791.5 902.5,791.5" style="stroke-opacity: 1;"></path><path class="tree-link" d="M1168.4999999999998,840C1168.4999999999998,780 1263.4999999999998,791.5 1263.4999999999998,791.5" style="stroke-opacity: 1;"></path><path class="tree-link" d="M1358.4999999999998,840C1358.4999999999998,780 1263.4999999999998,791.5 1263.4999999999998,791.5" style="stroke-opacity: 1;"></path><path class="tree-link" d="M2194.5,840C2194.5,780 2289.5,791.5 2289.5,791.5" style="stroke-opacity: 1;"></path><path class="tree-link" d="M2384.5,840C2384.5,780 2289.5,791.5 2289.5,791.5" style="stroke-opacity: 1;"></path><path class="tree-link" d="M978.4999999999999,900C978.4999999999999,840 1358.4999999999998,851.5 1358.4999999999998,851.5" style="stroke-opacity: 1;"></path><path class="tree-link" d="M1168.4999999999998,900C1168.4999999999998,840 1358.4999999999998,851.5 1358.4999999999998,851.5" style="stroke-opacity: 1;"></path><path class="tree-link" d="M1358.4999999999998,900C1358.4999999999998,840 1358.4999999999998,851.5 1358.4999999999998,851.5" style="stroke-opacity: 1;"></path><path class="tree-link" d="M1548.4999999999998,900C1548.4999999999998,840 1358.4999999999998,851.5 1358.4999999999998,851.5" style="stroke-opacity: 1;"></path><path class="tree-link" d="M1738.4999999999998,900C1738.4999999999998,840 1358.4999999999998,851.5 1358.4999999999998,851.5" style="stroke-opacity: 1;"></path><path class="tree-link" d="M2004.5,900C2004.5,840 2384.5,851.5 2384.5,851.5" style="stroke-opacity: 1;"></path><path class="tree-link" d="M2194.5,900C2194.5,840 2384.5,851.5 2384.5,851.5" style="stroke-opacity: 1;"></path><path class="tree-link" d="M2384.5,900C2384.5,840 2384.5,851.5 2384.5,851.5" style="stroke-opacity: 1;"></path><path class="tree-link" d="M2574.5,900C2574.5,840 2384.5,851.5 2384.5,851.5" style="stroke-opacity: 1;"></path><path class="tree-link" d="M2764.5,900C2764.5,840 2384.5,851.5 2384.5,851.5" style="stroke-opacity: 1;"></path><path class="tree-link" d="M1168.4999999999998,960C1168.4999999999998,900 1168.4999999999998,911.5 1168.4999999999998,911.5" style="stroke-opacity: 1;"></path><path class="tree-link" d="M1548.4999999999998,960C1548.4999999999998,900 1548.4999999999998,911.5 1548.4999999999998,911.5" style="stroke-opacity: 1;"></path><path class="tree-link" d="M2194.5,960C2194.5,900 2194.5,911.5 2194.5,911.5" style="stroke-opacity: 1;"></path><path class="tree-link" d="M2574.5,960C2574.5,900 2574.5,911.5 2574.5,911.5" style="stroke-opacity: 1;"></path><path class="tree-link" d="M1168.4999999999998,1020C1168.4999999999998,960 1168.4999999999998,971.5 1168.4999999999998,971.5" style="stroke-opacity: 1;"></path><path class="tree-link" d="M1548.4999999999998,1020C1548.4999999999998,960 1548.4999999999998,971.5 1548.4999999999998,971.5" style="stroke-opacity: 1;"></path><path class="tree-link" d="M2194.5,1020C2194.5,960 2194.5,971.5 2194.5,971.5" style="stroke-opacity: 1;"></path><path class="tree-link" d="M2574.5,1020C2574.5,960 2574.5,971.5 2574.5,971.5" style="stroke-opacity: 1;"></path><path class="tree-link" d="M1358.4999999999998,1080C1358.4999999999998,1020 1548.4999999999998,1031.5 1548.4999999999998,1031.5" style="stroke-opacity: 1;"></path><path class="tree-link" d="M1548.4999999999998,1080C1548.4999999999998,1020 1548.4999999999998,1031.5 1548.4999999999998,1031.5" style="stroke-opacity: 1;"></path><path class="tree-link" d="M1738.4999999999998,1080C1738.4999999999998,1020 1548.4999999999998,1031.5 1548.4999999999998,1031.5" style="stroke-opacity: 1;"></path><path class="tree-link" d="M2384.5,1080C2384.5,1020 2574.5,1031.5 2574.5,1031.5" style="stroke-opacity: 1;"></path><path class="tree-link" d="M2574.5,1080C2574.5,1020 2574.5,1031.5 2574.5,1031.5" style="stroke-opacity: 1;"></path><path class="tree-link" d="M2764.5,1080C2764.5,1020 2574.5,1031.5 2574.5,1031.5" style="stroke-opacity: 1;"></path><path class="tree-link" d="M1358.4999999999998,1140C1358.4999999999998,1080 1548.4999999999998,1091.5 1548.4999999999998,1091.5" style="stroke-opacity: 1;"></path><path class="tree-link" d="M1548.4999999999998,1140C1548.4999999999998,1080 1548.4999999999998,1091.5 1548.4999999999998,1091.5" style="stroke-opacity: 1;"></path><path class="tree-link" d="M1738.4999999999998,1140C1738.4999999999998,1080 1548.4999999999998,1091.5 1548.4999999999998,1091.5" style="stroke-opacity: 1;"></path><path class="tree-link" d="M2384.5,1140C2384.5,1080 2574.5,1091.5 2574.5,1091.5" style="stroke-opacity: 1;"></path><path class="tree-link" d="M2574.5,1140C2574.5,1080 2574.5,1091.5 2574.5,1091.5" style="stroke-opacity: 1;"></path><path class="tree-link" d="M2764.5,1140C2764.5,1080 2574.5,1091.5 2574.5,1091.5" style="stroke-opacity: 1;"></path><path class="tree-link" d="M1358.4999999999998,1200C1358.4999999999998,1140 1358.4999999999998,1151.5 1358.4999999999998,1151.5" style="stroke-opacity: 1;"></path><path class="tree-link" d="M1738.4999999999998,1200C1738.4999999999998,1140 1738.4999999999998,1151.5 1738.4999999999998,1151.5" style="stroke-opacity: 1;"></path><path class="tree-link" d="M2384.5,1200C2384.5,1140 2384.5,1151.5 2384.5,1151.5" style="stroke-opacity: 1;"></path><path class="tree-link" d="M2764.5,1200C2764.5,1140 2764.5,1151.5 2764.5,1151.5" style="stroke-opacity: 1;"></path><g class="tree-node tree-root" transform="translate(0,0)" style="opacity: 1;"><rect width="171" height="23" rx="0" ry="0"></rect><text class="node-text" y="11.5" dy=".35em" x="66.47586441040039">script</text><text class="token-range" x="0" y="11.5" dx="0" dy="-1.8em">⨳ 0-68</text><text class="token-value" x="0" y="11.5" dy="2.5em" dx="85.5"></text></g><g class="tree-node" transform="translate(0,60)" style="opacity: 1;"><rect width="171" height="23" rx="0" ry="0"></rect><text class="node-text" y="11.5" dy=".35em" x="5.826408386230469">componentDeclaration</text><text class="token-range" x="0" y="11.5" dx="0" dy="-1.8em">⨳ 0-68</text><text class="token-value" x="0" y="11.5" dy="2.5em" dx="85.5"></text></g><g class="tree-node tree-leaf" transform="translate(-969, 120)" style="opacity: 1;"><rect width="171" height="23" rx="10" ry="10"></rect><text class="node-text" y="11.5" dy=".35em" x="33.7425651550293">COMPONENT</text><text class="token-range" x="0" y="11.5" dx="0" dy="-1.8em">⨳ 0</text><text class="token-value" x="0" y="11.5" dy="2.5em" dx="42.3544807434082">component</text></g><g class="tree-node tree-leaf" transform="translate(-779, 120)" style="opacity: 1;"><rect width="171" height="23" rx="10" ry="10"></rect><text class="node-text" y="11.5" dy=".35em" x="77.53729963302612">ID</text><text class="token-range" x="0" y="11.5" dx="0" dy="-1.8em">⨳ 2</text><text class="token-value" x="0" y="11.5" dy="2.5em" dx="66.3242130279541">test</text></g><g class="tree-node tree-leaf" transform="translate(-589, 120)" style="opacity: 1;"><rect width="171" height="23" rx="10" ry="10"></rect><text class="node-text" y="11.5" dy=".35em" x="54.23034858703613">LPAREN</text><text class="token-range" x="0" y="11.5" dx="0" dy="-1.8em">⨳ 3</text><text class="token-value" x="0" y="11.5" dy="2.5em" dx="80.70605325698853">(</text></g><g class="tree-node" transform="translate(-398.99999999999994,120)" style="opacity: 1;"><rect width="171" height="23" rx="0" ry="0"></rect><text class="node-text" y="11.5" dy=".35em" x="45.227779388427734">parameters</text><text class="token-range" x="0" y="11.5" dx="0" dy="-1.8em">⨳ 4-12</text><text class="token-value" x="0" y="11.5" dy="2.5em" dx="85.5"></text></g><g class="tree-node tree-leaf" transform="translate(285, 120)" style="opacity: 1;"><rect width="171" height="23" rx="10" ry="10"></rect><text class="node-text" y="11.5" dy=".35em" x="52.90842056274414">RPAREN</text><text class="token-range" x="0" y="11.5" dx="0" dy="-1.8em">⨳ 13</text><text class="token-value" x="0" y="11.5" dy="2.5em" dx="80.70605325698853">)</text></g><g class="tree-node" transform="translate(968.9999999999999,120)" style="opacity: 1;"><rect width="171" height="23" rx="0" ry="0"></rect><text class="node-text" y="11.5" dy=".35em" x="66.91132164001465">block</text><text class="token-range" x="0" y="11.5" dx="0" dy="-1.8em">⨳ 15-68</text><text class="token-value" x="0" y="11.5" dy="2.5em" dx="85.5"></text></g><g class="tree-node" transform="translate(-398.99999999999994,180)" style="opacity: 1;"><rect width="171" height="23" rx="0" ry="0"></rect><text class="node-text" y="11.5" dy=".35em" x="49.20911407470703">parameter</text><text class="token-range" x="0" y="11.5" dx="0" dy="-1.8em">⨳ 4-12</text><text class="token-value" x="0" y="11.5" dy="2.5em" dx="85.5"></text></g><g class="tree-node tree-leaf" transform="translate(779, 180)" style="opacity: 1;"><rect width="171" height="23" rx="10" ry="10"></rect><text class="node-text" y="11.5" dy=".35em" x="59.391855239868164">LCURL</text><text class="token-range" x="0" y="11.5" dx="0" dy="-1.8em">⨳ 15</text><text class="token-value" x="0" y="11.5" dy="2.5em" dx="80.70605325698853">{</text></g><g class="tree-node" transform="translate(968.9999999999999,180)" style="opacity: 1;"><rect width="171" height="23" rx="0" ry="0"></rect><text class="node-text" y="11.5" dy=".35em" x="46.5535774230957">statements</text><text class="token-range" x="0" y="11.5" dx="0" dy="-1.8em">⨳ 17-66</text><text class="token-value" x="0" y="11.5" dy="2.5em" dx="85.5"></text></g><g class="tree-node tree-leaf" transform="translate(1159,180)" style="opacity: 1;"><rect width="171" height="23" rx="10" ry="10"></rect><text class="node-text" y="11.5" dy=".35em" x="58.069929122924805">RCURL</text><text class="token-range" x="0" y="11.5" dx="0" dy="-1.8em">⨳ 68</text><text class="token-value" x="0" y="11.5" dy="2.5em" dx="80.70605325698853">}</text></g><g class="tree-node" transform="translate(-778.9999999999999,240)" style="opacity: 1;"><rect width="171" height="23" rx="0" ry="0"></rect><text class="node-text" y="11.5" dy=".35em" x="47.42836380004883">assignable</text><text class="token-range" x="0" y="11.5" dx="0" dy="-1.8em">⨳ 4</text><text class="token-value" x="0" y="11.5" dy="2.5em" dx="85.5"></text></g><g class="tree-node tree-leaf" transform="translate(-589, 240)" style="opacity: 1;"><rect width="171" height="23" rx="10" ry="10"></rect><text class="node-text" y="11.5" dy=".35em" x="57.1834602355957">COLON</text><text class="token-range" x="0" y="11.5" dx="0" dy="-1.8em">⨳ 5</text><text class="token-value" x="0" y="11.5" dy="2.5em" dx="80.70605325698853">:</text></g><g class="tree-node" transform="translate(-398.99999999999994,240)" style="opacity: 1;"><rect width="171" height="23" rx="0" ry="0"></rect><text class="node-text" y="11.5" dy=".35em" x="70.44942092895508">type</text><text class="token-range" x="0" y="11.5" dx="0" dy="-1.8em">⨳ 7</text><text class="token-value" x="0" y="11.5" dy="2.5em" dx="85.5"></text></g><g class="tree-node tree-leaf" transform="translate(-209, 240)" style="opacity: 1;"><rect width="171" height="23" rx="10" ry="10"></rect><text class="node-text" y="11.5" dy=".35em" x="32.85222625732422">ASSIGNMENT</text><text class="token-range" x="0" y="11.5" dx="0" dy="-1.8em">⨳ 9</text><text class="token-value" x="0" y="11.5" dy="2.5em" dx="80.70605325698853">=</text></g><g class="tree-node" transform="translate(-18.999999999999932,240)" style="opacity: 1;"><rect width="171" height="23" rx="0" ry="0"></rect><text class="node-text" y="11.5" dy=".35em" x="46.99293899536133">expression</text><text class="token-range" x="0" y="11.5" dx="0" dy="-1.8em">⨳ 11-12</text><text class="token-value" x="0" y="11.5" dy="2.5em" dx="85.5"></text></g><g class="tree-node" transform="translate(968.9999999999999,240)" style="opacity: 1;"><rect width="171" height="23" rx="0" ry="0"></rect><text class="node-text" y="11.5" dy=".35em" x="50.534912109375">statement</text><text class="token-range" x="0" y="11.5" dx="0" dy="-1.8em">⨳ 17-66</text><text class="token-value" x="0" y="11.5" dy="2.5em" dx="85.5"></text></g><g class="tree-node tree-leaf" transform="translate(-779, 300)" style="opacity: 1;"><rect width="171" height="23" rx="10" ry="10"></rect><text class="node-text" y="11.5" dy=".35em" x="77.53729963302612">ID</text><text class="token-range" x="0" y="11.5" dx="0" dy="-1.8em">⨳ 4</text><text class="token-value" x="0" y="11.5" dy="2.5em" dx="66.3242130279541">test</text></g><g class="tree-node tree-leaf" transform="translate(-399, 300)" style="opacity: 1;"><rect width="171" height="23" rx="10" ry="10"></rect><text class="node-text" y="11.5" dy=".35em" x="54.0886287689209">OBJECT</text><text class="token-range" x="0" y="11.5" dx="0" dy="-1.8em">⨳ 7</text><text class="token-value" x="0" y="11.5" dy="2.5em" dx="56.73632049560547">object</text></g><g class="tree-node" transform="translate(-18.999999999999932,300)" style="opacity: 1;"><rect width="171" height="23" rx="0" ry="0"></rect><text class="node-text" y="11.5" dy=".35em" x="42.56439971923828">objectLiteral</text><text class="token-range" x="0" y="11.5" dx="0" dy="-1.8em">⨳ 11-12</text><text class="token-value" x="0" y="11.5" dy="2.5em" dx="85.5"></text></g><g class="tree-node" transform="translate(968.9999999999999,300)" style="opacity: 1;"><rect width="171" height="23" rx="0" ry="0"></rect><text class="node-text" y="11.5" dy=".35em" x="43.0116081237793">expressions</text><text class="token-range" x="0" y="11.5" dx="0" dy="-1.8em">⨳ 17-66</text><text class="token-value" x="0" y="11.5" dy="2.5em" dx="85.5"></text></g><g class="tree-node tree-leaf" transform="translate(-114, 360)" style="opacity: 1;"><rect width="171" height="23" rx="10" ry="10"></rect><text class="node-text" y="11.5" dy=".35em" x="59.391855239868164">LCURL</text><text class="token-range" x="0" y="11.5" dx="0" dy="-1.8em">⨳ 11</text><text class="token-value" x="0" y="11.5" dy="2.5em" dx="80.70605325698853">{</text></g><g class="tree-node tree-leaf" transform="translate(76, 360)" style="opacity: 1;"><rect width="171" height="23" rx="10" ry="10"></rect><text class="node-text" y="11.5" dy=".35em" x="58.069929122924805">RCURL</text><text class="token-range" x="0" y="11.5" dx="0" dy="-1.8em">⨳ 12</text><text class="token-value" x="0" y="11.5" dy="2.5em" dx="80.70605325698853">}</text></g><g class="tree-node" transform="translate(341.99999999999994,360)" style="opacity: 1;"><rect width="171" height="23" rx="0" ry="0"></rect><text class="node-text" y="11.5" dy=".35em" x="46.99293899536133">expression</text><text class="token-range" x="0" y="11.5" dx="0" dy="-1.8em">⨳ 17-30</text><text class="token-value" x="0" y="11.5" dy="2.5em" dx="85.5"></text></g><g class="tree-node" transform="translate(1595.9999999999998,360)" style="opacity: 1;"><rect width="171" height="23" rx="0" ry="0"></rect><text class="node-text" y="11.5" dy=".35em" x="46.99293899536133">expression</text><text class="token-range" x="0" y="11.5" dx="0" dy="-1.8em">⨳ 32-66</text><text class="token-value" x="0" y="11.5" dy="2.5em" dx="85.5"></text></g><g class="tree-node" transform="translate(341.99999999999994,420)" style="opacity: 1;"><rect width="171" height="23" rx="0" ry="0"></rect><text class="node-text" y="11.5" dy=".35em" x="34.162437438964844">callExpression</text><text class="token-range" x="0" y="11.5" dx="0" dy="-1.8em">⨳ 17-30</text><text class="token-value" x="0" y="11.5" dy="2.5em" dx="85.5"></text></g><g class="tree-node" transform="translate(1595.9999999999998,420)" style="opacity: 1;"><rect width="171" height="23" rx="0" ry="0"></rect><text class="node-text" y="11.5" dy=".35em" x="34.162437438964844">callExpression</text><text class="token-range" x="0" y="11.5" dx="0" dy="-1.8em">⨳ 32-66</text><text class="token-value" x="0" y="11.5" dy="2.5em" dx="85.5"></text></g><g class="tree-node tree-leaf" transform="translate(247, 480)" style="opacity: 1;"><rect width="171" height="23" rx="10" ry="10"></rect><text class="node-text" y="11.5" dy=".35em" x="77.53729963302612">ID</text><text class="token-range" x="0" y="11.5" dx="0" dy="-1.8em">⨳ 17</text><text class="token-value" x="0" y="11.5" dy="2.5em" dx="75.91210651397705">h1</text></g><g class="tree-node" transform="translate(436.99999999999994,480)" style="opacity: 1;"><rect width="171" height="23" rx="0" ry="0"></rect><text class="node-text" y="11.5" dy=".35em" x="47.87940979003906">arguments</text><text class="token-range" x="0" y="11.5" dx="0" dy="-1.8em">⨳ 18-30</text><text class="token-value" x="0" y="11.5" dy="2.5em" dx="85.5"></text></g><g class="tree-node tree-leaf" transform="translate(1501,480)" style="opacity: 1;"><rect width="171" height="23" rx="10" ry="10"></rect><text class="node-text" y="11.5" dy=".35em" x="77.53729963302612">ID</text><text class="token-range" x="0" y="11.5" dx="0" dy="-1.8em">⨳ 32</text><text class="token-value" x="0" y="11.5" dy="2.5em" dx="71.11816024780273">div</text></g><g class="tree-node" transform="translate(1690.9999999999998,480)" style="opacity: 1;"><rect width="171" height="23" rx="0" ry="0"></rect><text class="node-text" y="11.5" dy=".35em" x="66.91132164001465">block</text><text class="token-range" x="0" y="11.5" dx="0" dy="-1.8em">⨳ 34-66</text><text class="token-value" x="0" y="11.5" dy="2.5em" dx="85.5"></text></g><g class="tree-node tree-leaf" transform="translate(57, 540)" style="opacity: 1;"><rect width="171" height="23" rx="10" ry="10"></rect><text class="node-text" y="11.5" dy=".35em" x="54.23034858703613">LPAREN</text><text class="token-range" x="0" y="11.5" dx="0" dy="-1.8em">⨳ 18</text><text class="token-value" x="0" y="11.5" dy="2.5em" dx="80.70605325698853">(</text></g><g class="tree-node" transform="translate(246.99999999999997,540)" style="opacity: 1;"><rect width="171" height="23" rx="0" ry="0"></rect><text class="node-text" y="11.5" dy=".35em" x="51.86074447631836">argument</text><text class="token-range" x="0" y="11.5" dx="0" dy="-1.8em">⨳ 19</text><text class="token-value" x="0" y="11.5" dy="2.5em" dx="85.5"></text></g><g class="tree-node tree-leaf" transform="translate(437, 540)" style="opacity: 1;"><rect width="171" height="23" rx="10" ry="10"></rect><text class="node-text" y="11.5" dy=".35em" x="54.97900199890137">COMMA</text><text class="token-range" x="0" y="11.5" dx="0" dy="-1.8em">⨳ 20</text><text class="token-value" x="0" y="11.5" dy="2.5em" dx="80.70605325698853">,</text></g><g class="tree-node" transform="translate(627,540)" style="opacity: 1;"><rect width="171" height="23" rx="0" ry="0"></rect><text class="node-text" y="11.5" dy=".35em" x="51.86074447631836">argument</text><text class="token-range" x="0" y="11.5" dx="0" dy="-1.8em">⨳ 22-29</text><text class="token-value" x="0" y="11.5" dy="2.5em" dx="85.5"></text></g><g class="tree-node tree-leaf" transform="translate(817,540)" style="opacity: 1;"><rect width="171" height="23" rx="10" ry="10"></rect><text class="node-text" y="11.5" dy=".35em" x="52.90842056274414">RPAREN</text><text class="token-range" x="0" y="11.5" dx="0" dy="-1.8em">⨳ 30</text><text class="token-value" x="0" y="11.5" dy="2.5em" dx="80.70605325698853">)</text></g><g class="tree-node tree-leaf" transform="translate(1501,540)" style="opacity: 1;"><rect width="171" height="23" rx="10" ry="10"></rect><text class="node-text" y="11.5" dy=".35em" x="59.391855239868164">LCURL</text><text class="token-range" x="0" y="11.5" dx="0" dy="-1.8em">⨳ 34</text><text class="token-value" x="0" y="11.5" dy="2.5em" dx="80.70605325698853">{</text></g><g class="tree-node" transform="translate(1690.9999999999998,540)" style="opacity: 1;"><rect width="171" height="23" rx="0" ry="0"></rect><text class="node-text" y="11.5" dy=".35em" x="46.5535774230957">statements</text><text class="token-range" x="0" y="11.5" dx="0" dy="-1.8em">⨳ 36-64</text><text class="token-value" x="0" y="11.5" dy="2.5em" dx="85.5"></text></g><g class="tree-node tree-leaf" transform="translate(1880.9999999999998,540)" style="opacity: 1;"><rect width="171" height="23" rx="10" ry="10"></rect><text class="node-text" y="11.5" dy=".35em" x="58.069929122924805">RCURL</text><text class="token-range" x="0" y="11.5" dx="0" dy="-1.8em">⨳ 66</text><text class="token-value" x="0" y="11.5" dy="2.5em" dx="80.70605325698853">}</text></g><g class="tree-node" transform="translate(246.99999999999997,600)" style="opacity: 1;"><rect width="171" height="23" rx="0" ry="0"></rect><text class="node-text" y="11.5" dy=".35em" x="46.99293899536133">expression</text><text class="token-range" x="0" y="11.5" dx="0" dy="-1.8em">⨳ 19</text><text class="token-value" x="0" y="11.5" dy="2.5em" dx="85.5"></text></g><g class="tree-node" transform="translate(627,600)" style="opacity: 1;"><rect width="171" height="23" rx="0" ry="0"></rect><text class="node-text" y="11.5" dy=".35em" x="46.99293899536133">expression</text><text class="token-range" x="0" y="11.5" dx="0" dy="-1.8em">⨳ 22-29</text><text class="token-value" x="0" y="11.5" dy="2.5em" dx="85.5"></text></g><g class="tree-node" transform="translate(1690.9999999999998,600)" style="opacity: 1;"><rect width="171" height="23" rx="0" ry="0"></rect><text class="node-text" y="11.5" dy=".35em" x="50.534912109375">statement</text><text class="token-range" x="0" y="11.5" dx="0" dy="-1.8em">⨳ 36-64</text><text class="token-value" x="0" y="11.5" dy="2.5em" dx="85.5"></text></g><g class="tree-node tree-leaf" transform="translate(247, 660)" style="opacity: 1;"><rect width="171" height="23" rx="10" ry="10"></rect><text class="node-text" y="11.5" dy=".35em" x="43.011539459228516">StringLiteral</text><text class="token-range" x="0" y="11.5" dx="0" dy="-1.8em">⨳ 19</text><text class="token-value" x="0" y="11.5" dy="2.5em" dx="27.972640991210938">"Hello Gert"</text></g><g class="tree-node" transform="translate(627,660)" style="opacity: 1;"><rect width="171" height="23" rx="0" ry="0"></rect><text class="node-text" y="11.5" dy=".35em" x="42.56439971923828">objectLiteral</text><text class="token-range" x="0" y="11.5" dx="0" dy="-1.8em">⨳ 22-29</text><text class="token-value" x="0" y="11.5" dy="2.5em" dx="85.5"></text></g><g class="tree-node" transform="translate(1690.9999999999998,660)" style="opacity: 1;"><rect width="171" height="23" rx="0" ry="0"></rect><text class="node-text" y="11.5" dy=".35em" x="43.0116081237793">expressions</text><text class="token-range" x="0" y="11.5" dx="0" dy="-1.8em">⨳ 36-64</text><text class="token-value" x="0" y="11.5" dy="2.5em" dx="85.5"></text></g><g class="tree-node tree-leaf" transform="translate(437, 720)" style="opacity: 1;"><rect width="171" height="23" rx="10" ry="10"></rect><text class="node-text" y="11.5" dy=".35em" x="59.391855239868164">LCURL</text><text class="token-range" x="0" y="11.5" dx="0" dy="-1.8em">⨳ 22</text><text class="token-value" x="0" y="11.5" dy="2.5em" dx="80.70605325698853">{</text></g><g class="tree-node" transform="translate(627,720)" style="opacity: 1;"><rect width="171" height="23" rx="0" ry="0"></rect><text class="node-text" y="11.5" dy=".35em" x="14.687294006347656">propertyAssignment</text><text class="token-range" x="0" y="11.5" dx="0" dy="-1.8em">⨳ 24-27</text><text class="token-value" x="0" y="11.5" dy="2.5em" dx="85.5"></text></g><g class="tree-node tree-leaf" transform="translate(817,720)" style="opacity: 1;"><rect width="171" height="23" rx="10" ry="10"></rect><text class="node-text" y="11.5" dy=".35em" x="58.069929122924805">RCURL</text><text class="token-range" x="0" y="11.5" dx="0" dy="-1.8em">⨳ 29</text><text class="token-value" x="0" y="11.5" dy="2.5em" dx="80.70605325698853">}</text></g><g class="tree-node" transform="translate(1177.9999999999998,720)" style="opacity: 1;"><rect width="171" height="23" rx="0" ry="0"></rect><text class="node-text" y="11.5" dy=".35em" x="46.99293899536133">expression</text><text class="token-range" x="0" y="11.5" dx="0" dy="-1.8em">⨳ 36-49</text><text class="token-value" x="0" y="11.5" dy="2.5em" dx="85.5"></text></g><g class="tree-node" transform="translate(2204,720)" style="opacity: 1;"><rect width="171" height="23" rx="0" ry="0"></rect><text class="node-text" y="11.5" dy=".35em" x="46.99293899536133">expression</text><text class="token-range" x="0" y="11.5" dx="0" dy="-1.8em">⨳ 51-64</text><text class="token-value" x="0" y="11.5" dy="2.5em" dx="85.5"></text></g><g class="tree-node" transform="translate(436.99999999999994,780)" style="opacity: 1;"><rect width="171" height="23" rx="0" ry="0"></rect><text class="node-text" y="11.5" dy=".35em" x="35.04890823364258">propertyName</text><text class="token-range" x="0" y="11.5" dx="0" dy="-1.8em">⨳ 24</text><text class="token-value" x="0" y="11.5" dy="2.5em" dx="85.5"></text></g><g class="tree-node tree-leaf" transform="translate(627,780)" style="opacity: 1;"><rect width="171" height="23" rx="10" ry="10"></rect><text class="node-text" y="11.5" dy=".35em" x="57.1834602355957">COLON</text><text class="token-range" x="0" y="11.5" dx="0" dy="-1.8em">⨳ 25</text><text class="token-value" x="0" y="11.5" dy="2.5em" dx="80.70605325698853">:</text></g><g class="tree-node" transform="translate(817,780)" style="opacity: 1;"><rect width="171" height="23" rx="0" ry="0"></rect><text class="node-text" y="11.5" dy=".35em" x="46.99293899536133">expression</text><text class="token-range" x="0" y="11.5" dx="0" dy="-1.8em">⨳ 27</text><text class="token-value" x="0" y="11.5" dy="2.5em" dx="85.5"></text></g><g class="tree-node" transform="translate(1177.9999999999998,780)" style="opacity: 1;"><rect width="171" height="23" rx="0" ry="0"></rect><text class="node-text" y="11.5" dy=".35em" x="34.162437438964844">callExpression</text><text class="token-range" x="0" y="11.5" dx="0" dy="-1.8em">⨳ 36-49</text><text class="token-value" x="0" y="11.5" dy="2.5em" dx="85.5"></text></g><g class="tree-node" transform="translate(2204,780)" style="opacity: 1;"><rect width="171" height="23" rx="0" ry="0"></rect><text class="node-text" y="11.5" dy=".35em" x="34.162437438964844">callExpression</text><text class="token-range" x="0" y="11.5" dx="0" dy="-1.8em">⨳ 51-64</text><text class="token-value" x="0" y="11.5" dy="2.5em" dx="85.5"></text></g><g class="tree-node tree-leaf" transform="translate(436.99999999999994,840)" style="opacity: 1;"><rect width="171" height="23" rx="10" ry="10"></rect><text class="node-text" y="11.5" dy=".35em" x="77.53729963302612">ID</text><text class="token-range" x="0" y="11.5" dx="0" dy="-1.8em">⨳ 24</text><text class="token-value" x="0" y="11.5" dy="2.5em" dx="75.91210651397705">id</text></g><g class="tree-node tree-leaf" transform="translate(817,840)" style="opacity: 1;"><rect width="171" height="23" rx="10" ry="10"></rect><text class="node-text" y="11.5" dy=".35em" x="43.011539459228516">StringLiteral</text><text class="token-range" x="0" y="11.5" dx="0" dy="-1.8em">⨳ 27</text><text class="token-value" x="0" y="11.5" dy="2.5em" dx="56.73632049560547">"gert"</text></g><g class="tree-node tree-leaf" transform="translate(1082.9999999999998,840)" style="opacity: 1;"><rect width="171" height="23" rx="10" ry="10"></rect><text class="node-text" y="11.5" dy=".35em" x="77.53729963302612">ID</text><text class="token-range" x="0" y="11.5" dx="0" dy="-1.8em">⨳ 36</text><text class="token-value" x="0" y="11.5" dy="2.5em" dx="80.70605325698853">p</text></g><g class="tree-node" transform="translate(1272.9999999999998,840)" style="opacity: 1;"><rect width="171" height="23" rx="0" ry="0"></rect><text class="node-text" y="11.5" dy=".35em" x="47.87940979003906">arguments</text><text class="token-range" x="0" y="11.5" dx="0" dy="-1.8em">⨳ 37-49</text><text class="token-value" x="0" y="11.5" dy="2.5em" dx="85.5"></text></g><g class="tree-node tree-leaf" transform="translate(2109,840)" style="opacity: 1;"><rect width="171" height="23" rx="10" ry="10"></rect><text class="node-text" y="11.5" dy=".35em" x="77.53729963302612">ID</text><text class="token-range" x="0" y="11.5" dx="0" dy="-1.8em">⨳ 51</text><text class="token-value" x="0" y="11.5" dy="2.5em" dx="80.70605325698853">p</text></g><g class="tree-node" transform="translate(2299,840)" style="opacity: 1;"><rect width="171" height="23" rx="0" ry="0"></rect><text class="node-text" y="11.5" dy=".35em" x="47.87940979003906">arguments</text><text class="token-range" x="0" y="11.5" dx="0" dy="-1.8em">⨳ 52-64</text><text class="token-value" x="0" y="11.5" dy="2.5em" dx="85.5"></text></g><g class="tree-node tree-leaf" transform="translate(892.9999999999999,900)" style="opacity: 1;"><rect width="171" height="23" rx="10" ry="10"></rect><text class="node-text" y="11.5" dy=".35em" x="54.23034858703613">LPAREN</text><text class="token-range" x="0" y="11.5" dx="0" dy="-1.8em">⨳ 37</text><text class="token-value" x="0" y="11.5" dy="2.5em" dx="80.70605325698853">(</text></g><g class="tree-node" transform="translate(1082.9999999999998,900)" style="opacity: 1;"><rect width="171" height="23" rx="0" ry="0"></rect><text class="node-text" y="11.5" dy=".35em" x="51.86074447631836">argument</text><text class="token-range" x="0" y="11.5" dx="0" dy="-1.8em">⨳ 38</text><text class="token-value" x="0" y="11.5" dy="2.5em" dx="85.5"></text></g><g class="tree-node tree-leaf" transform="translate(1272.9999999999998,900)" style="opacity: 1;"><rect width="171" height="23" rx="10" ry="10"></rect><text class="node-text" y="11.5" dy=".35em" x="54.97900199890137">COMMA</text><text class="token-range" x="0" y="11.5" dx="0" dy="-1.8em">⨳ 39</text><text class="token-value" x="0" y="11.5" dy="2.5em" dx="80.70605325698853">,</text></g><g class="tree-node" transform="translate(1462.9999999999998,900)" style="opacity: 1;"><rect width="171" height="23" rx="0" ry="0"></rect><text class="node-text" y="11.5" dy=".35em" x="51.86074447631836">argument</text><text class="token-range" x="0" y="11.5" dx="0" dy="-1.8em">⨳ 41-48</text><text class="token-value" x="0" y="11.5" dy="2.5em" dx="85.5"></text></g><g class="tree-node tree-leaf" transform="translate(1652.9999999999998,900)" style="opacity: 1;"><rect width="171" height="23" rx="10" ry="10"></rect><text class="node-text" y="11.5" dy=".35em" x="52.90842056274414">RPAREN</text><text class="token-range" x="0" y="11.5" dx="0" dy="-1.8em">⨳ 49</text><text class="token-value" x="0" y="11.5" dy="2.5em" dx="80.70605325698853">)</text></g><g class="tree-node tree-leaf" transform="translate(1919,900)" style="opacity: 1;"><rect width="171" height="23" rx="10" ry="10"></rect><text class="node-text" y="11.5" dy=".35em" x="54.23034858703613">LPAREN</text><text class="token-range" x="0" y="11.5" dx="0" dy="-1.8em">⨳ 52</text><text class="token-value" x="0" y="11.5" dy="2.5em" dx="80.70605325698853">(</text></g><g class="tree-node" transform="translate(2109,900)" style="opacity: 1;"><rect width="171" height="23" rx="0" ry="0"></rect><text class="node-text" y="11.5" dy=".35em" x="51.86074447631836">argument</text><text class="token-range" x="0" y="11.5" dx="0" dy="-1.8em">⨳ 53</text><text class="token-value" x="0" y="11.5" dy="2.5em" dx="85.5"></text></g><g class="tree-node tree-leaf" transform="translate(2299,900)" style="opacity: 1;"><rect width="171" height="23" rx="10" ry="10"></rect><text class="node-text" y="11.5" dy=".35em" x="54.97900199890137">COMMA</text><text class="token-range" x="0" y="11.5" dx="0" dy="-1.8em">⨳ 54</text><text class="token-value" x="0" y="11.5" dy="2.5em" dx="80.70605325698853">,</text></g><g class="tree-node" transform="translate(2489,900)" style="opacity: 1;"><rect width="171" height="23" rx="0" ry="0"></rect><text class="node-text" y="11.5" dy=".35em" x="51.86074447631836">argument</text><text class="token-range" x="0" y="11.5" dx="0" dy="-1.8em">⨳ 56-63</text><text class="token-value" x="0" y="11.5" dy="2.5em" dx="85.5"></text></g><g class="tree-node tree-leaf" transform="translate(2679,900)" style="opacity: 1;"><rect width="171" height="23" rx="10" ry="10"></rect><text class="node-text" y="11.5" dy=".35em" x="52.90842056274414">RPAREN</text><text class="token-range" x="0" y="11.5" dx="0" dy="-1.8em">⨳ 64</text><text class="token-value" x="0" y="11.5" dy="2.5em" dx="80.70605325698853">)</text></g><g class="tree-node" transform="translate(1082.9999999999998,960)" style="opacity: 1;"><rect width="171" height="23" rx="0" ry="0"></rect><text class="node-text" y="11.5" dy=".35em" x="46.99293899536133">expression</text><text class="token-range" x="0" y="11.5" dx="0" dy="-1.8em">⨳ 38</text><text class="token-value" x="0" y="11.5" dy="2.5em" dx="85.5"></text></g><g class="tree-node" transform="translate(1462.9999999999998,960)" style="opacity: 1;"><rect width="171" height="23" rx="0" ry="0"></rect><text class="node-text" y="11.5" dy=".35em" x="46.99293899536133">expression</text><text class="token-range" x="0" y="11.5" dx="0" dy="-1.8em">⨳ 41-48</text><text class="token-value" x="0" y="11.5" dy="2.5em" dx="85.5"></text></g><g class="tree-node" transform="translate(2109,960)" style="opacity: 1;"><rect width="171" height="23" rx="0" ry="0"></rect><text class="node-text" y="11.5" dy=".35em" x="46.99293899536133">expression</text><text class="token-range" x="0" y="11.5" dx="0" dy="-1.8em">⨳ 53</text><text class="token-value" x="0" y="11.5" dy="2.5em" dx="85.5"></text></g><g class="tree-node" transform="translate(2489,960)" style="opacity: 1;"><rect width="171" height="23" rx="0" ry="0"></rect><text class="node-text" y="11.5" dy=".35em" x="46.99293899536133">expression</text><text class="token-range" x="0" y="11.5" dx="0" dy="-1.8em">⨳ 56-63</text><text class="token-value" x="0" y="11.5" dy="2.5em" dx="85.5"></text></g><g class="tree-node tree-leaf" transform="translate(1082.9999999999998,1020)" style="opacity: 1;"><rect width="171" height="23" rx="10" ry="10"></rect><text class="node-text" y="11.5" dy=".35em" x="43.011539459228516">StringLiteral</text><text class="token-range" x="0" y="11.5" dx="0" dy="-1.8em">⨳ 38</text><text class="token-value" x="0" y="11.5" dy="2.5em" dx="18.384750366210938">"Hello world1"</text></g><g class="tree-node" transform="translate(1462.9999999999998,1020)" style="opacity: 1;"><rect width="171" height="23" rx="0" ry="0"></rect><text class="node-text" y="11.5" dy=".35em" x="42.56439971923828">objectLiteral</text><text class="token-range" x="0" y="11.5" dx="0" dy="-1.8em">⨳ 41-48</text><text class="token-value" x="0" y="11.5" dy="2.5em" dx="85.5"></text></g><g class="tree-node tree-leaf" transform="translate(2109,1020)" style="opacity: 1;"><rect width="171" height="23" rx="10" ry="10"></rect><text class="node-text" y="11.5" dy=".35em" x="43.011539459228516">StringLiteral</text><text class="token-range" x="0" y="11.5" dx="0" dy="-1.8em">⨳ 53</text><text class="token-value" x="0" y="11.5" dy="2.5em" dx="18.384750366210938">"Hello world2"</text></g><g class="tree-node" transform="translate(2489,1020)" style="opacity: 1;"><rect width="171" height="23" rx="0" ry="0"></rect><text class="node-text" y="11.5" dy=".35em" x="42.56439971923828">objectLiteral</text><text class="token-range" x="0" y="11.5" dx="0" dy="-1.8em">⨳ 56-63</text><text class="token-value" x="0" y="11.5" dy="2.5em" dx="85.5"></text></g><g class="tree-node tree-leaf" transform="translate(1272.9999999999998,1080)" style="opacity: 1;"><rect width="171" height="23" rx="10" ry="10"></rect><text class="node-text" y="11.5" dy=".35em" x="59.391855239868164">LCURL</text><text class="token-range" x="0" y="11.5" dx="0" dy="-1.8em">⨳ 41</text><text class="token-value" x="0" y="11.5" dy="2.5em" dx="80.70605325698853">{</text></g><g class="tree-node" transform="translate(1462.9999999999998,1080)" style="opacity: 1;"><rect width="171" height="23" rx="0" ry="0"></rect><text class="node-text" y="11.5" dy=".35em" x="14.687294006347656">propertyAssignment</text><text class="token-range" x="0" y="11.5" dx="0" dy="-1.8em">⨳ 43-46</text><text class="token-value" x="0" y="11.5" dy="2.5em" dx="85.5"></text></g><g class="tree-node tree-leaf" transform="translate(1652.9999999999998,1080)" style="opacity: 1;"><rect width="171" height="23" rx="10" ry="10"></rect><text class="node-text" y="11.5" dy=".35em" x="58.069929122924805">RCURL</text><text class="token-range" x="0" y="11.5" dx="0" dy="-1.8em">⨳ 48</text><text class="token-value" x="0" y="11.5" dy="2.5em" dx="80.70605325698853">}</text></g><g class="tree-node tree-leaf" transform="translate(2299,1080)" style="opacity: 1;"><rect width="171" height="23" rx="10" ry="10"></rect><text class="node-text" y="11.5" dy=".35em" x="59.391855239868164">LCURL</text><text class="token-range" x="0" y="11.5" dx="0" dy="-1.8em">⨳ 56</text><text class="token-value" x="0" y="11.5" dy="2.5em" dx="80.70605325698853">{</text></g><g class="tree-node" transform="translate(2489,1080)" style="opacity: 1;"><rect width="171" height="23" rx="0" ry="0"></rect><text class="node-text" y="11.5" dy=".35em" x="14.687294006347656">propertyAssignment</text><text class="token-range" x="0" y="11.5" dx="0" dy="-1.8em">⨳ 58-61</text><text class="token-value" x="0" y="11.5" dy="2.5em" dx="85.5"></text></g><g class="tree-node tree-leaf" transform="translate(2679,1080)" style="opacity: 1;"><rect width="171" height="23" rx="10" ry="10"></rect><text class="node-text" y="11.5" dy=".35em" x="58.069929122924805">RCURL</text><text class="token-range" x="0" y="11.5" dx="0" dy="-1.8em">⨳ 63</text><text class="token-value" x="0" y="11.5" dy="2.5em" dx="80.70605325698853">}</text></g><g class="tree-node" transform="translate(1272.9999999999998,1140)" style="opacity: 1;"><rect width="171" height="23" rx="0" ry="0"></rect><text class="node-text" y="11.5" dy=".35em" x="35.04890823364258">propertyName</text><text class="token-range" x="0" y="11.5" dx="0" dy="-1.8em">⨳ 43</text><text class="token-value" x="0" y="11.5" dy="2.5em" dx="85.5"></text></g><g class="tree-node tree-leaf" transform="translate(1462.9999999999998,1140)" style="opacity: 1;"><rect width="171" height="23" rx="10" ry="10"></rect><text class="node-text" y="11.5" dy=".35em" x="57.1834602355957">COLON</text><text class="token-range" x="0" y="11.5" dx="0" dy="-1.8em">⨳ 44</text><text class="token-value" x="0" y="11.5" dy="2.5em" dx="80.70605325698853">:</text></g><g class="tree-node" transform="translate(1652.9999999999998,1140)" style="opacity: 1;"><rect width="171" height="23" rx="0" ry="0"></rect><text class="node-text" y="11.5" dy=".35em" x="46.99293899536133">expression</text><text class="token-range" x="0" y="11.5" dx="0" dy="-1.8em">⨳ 46</text><text class="token-value" x="0" y="11.5" dy="2.5em" dx="85.5"></text></g><g class="tree-node" transform="translate(2299,1140)" style="opacity: 1;"><rect width="171" height="23" rx="0" ry="0"></rect><text class="node-text" y="11.5" dy=".35em" x="35.04890823364258">propertyName</text><text class="token-range" x="0" y="11.5" dx="0" dy="-1.8em">⨳ 58</text><text class="token-value" x="0" y="11.5" dy="2.5em" dx="85.5"></text></g><g class="tree-node tree-leaf" transform="translate(2489,1140)" style="opacity: 1;"><rect width="171" height="23" rx="10" ry="10"></rect><text class="node-text" y="11.5" dy=".35em" x="57.1834602355957">COLON</text><text class="token-range" x="0" y="11.5" dx="0" dy="-1.8em">⨳ 59</text><text class="token-value" x="0" y="11.5" dy="2.5em" dx="80.70605325698853">:</text></g><g class="tree-node" transform="translate(2679,1140)" style="opacity: 1;"><rect width="171" height="23" rx="0" ry="0"></rect><text class="node-text" y="11.5" dy=".35em" x="46.99293899536133">expression</text><text class="token-range" x="0" y="11.5" dx="0" dy="-1.8em">⨳ 61</text><text class="token-value" x="0" y="11.5" dy="2.5em" dx="85.5"></text></g><g class="tree-node tree-leaf" transform="translate(1272.9999999999998,1200)" style="opacity: 1;"><rect width="171" height="23" rx="10" ry="10"></rect><text class="node-text" y="11.5" dy=".35em" x="77.53729963302612">ID</text><text class="token-range" x="0" y="11.5" dx="0" dy="-1.8em">⨳ 43</text><text class="token-value" x="0" y="11.5" dy="2.5em" dx="75.91210651397705">id</text></g><g class="tree-node tree-leaf" transform="translate(1652.9999999999998,1200)" style="opacity: 1;"><rect width="171" height="23" rx="10" ry="10"></rect><text class="node-text" y="11.5" dy=".35em" x="43.011539459228516">StringLiteral</text><text class="token-range" x="0" y="11.5" dx="0" dy="-1.8em">⨳ 46</text><text class="token-value" x="0" y="11.5" dy="2.5em" dx="66.3242130279541">"p1"</text></g><g class="tree-node tree-leaf" transform="translate(2299,1200)" style="opacity: 1;"><rect width="171" height="23" rx="10" ry="10"></rect><text class="node-text" y="11.5" dy=".35em" x="77.53729963302612">ID</text><text class="token-range" x="0" y="11.5" dx="0" dy="-1.8em">⨳ 58</text><text class="token-value" x="0" y="11.5" dy="2.5em" dx="75.91210651397705">id</text></g><g class="tree-node tree-leaf" transform="translate(2679,1200)" style="opacity: 1;"><rect width="171" height="23" rx="10" ry="10"></rect><text class="node-text" y="11.5" dy=".35em" x="43.011539459228516">StringLiteral</text><text class="token-range" x="0" y="11.5" dx="0" dy="-1.8em">⨳ 61</text><text class="token-value" x="0" y="11.5" dy="2.5em" dx="66.3242130279541">"p2"</text></g></g></svg>